<svg width="512" height="512" viewBox="0 0 512 512" fill="none" xmlns="http://www.w3.org/2000/svg">
  <defs>
    <linearGradient id="bg" x1="72" y1="48" x2="440" y2="470" gradientUnits="userSpaceOnUse">
      <stop offset="0" stop-color="#14336A"/>
      <stop offset="0.56" stop-color="#0A204A"/>
      <stop offset="1" stop-color="#070F27"/>
    </linearGradient>
    <radialGradient id="ambient" cx="0" cy="0" r="1" gradientUnits="userSpaceOnUse" gradientTransform="translate(256 188) rotate(90) scale(250 236)">
      <stop offset="0" stop-color="#15A4A2" stop-opacity="0.34"/>
      <stop offset="0.58" stop-color="#15A4A2" stop-opacity="0.1"/>
      <stop offset="1" stop-color="#15A4A2" stop-opacity="0"/>
    </radialGradient>
    <linearGradient id="steel" x1="155" y1="104" x2="358" y2="366" gradientUnits="userSpaceOnUse">
      <stop offset="0" stop-color="#84F5C8"/>
      <stop offset="0.48" stop-color="#61DCF4"/>
      <stop offset="1" stop-color="#5B83FF"/>
    </linearGradient>
    <linearGradient id="core" x1="204" y1="154" x2="308" y2="294" gradientUnits="userSpaceOnUse">
      <stop offset="0" stop-color="#D9FFF8"/>
      <stop offset="1" stop-color="#A3C1FF"/>
    </linearGradient>
    <filter id="shadow" x="98" y="82" width="316" height="350" filterUnits="userSpaceOnUse" color-interpolation-filters="sRGB">
      <feFlood flood-opacity="0" result="BackgroundImageFix"/>
      <feColorMatrix in="SourceAlpha" type="matrix" values="0 0 0 0 0 0 0 0 0 0 0 0 0 0 0 0 0 0 127 0" result="hardAlpha"/>
      <feOffset dy="14"/>
      <feGaussianBlur stdDeviation="18"/>
      <feComposite in2="hardAlpha" operator="out"/>
      <feColorMatrix type="matrix" values="0 0 0 0 0.0157 0 0 0 0 0.1294 0 0 0 0 0.3294 0 0 0 0.42 0"/>
      <feBlend mode="normal" in2="BackgroundImageFix" result="effect1_dropShadow_1_1"/>
      <feBlend mode="normal" in="SourceGraphic" in2="effect1_dropShadow_1_1" result="shape"/>
    </filter>
  </defs>

  <rect x="4" y="4" width="504" height="504" rx="116" fill="url(#bg)"/>
  <rect x="4" y="4" width="504" height="504" rx="116" fill="url(#ambient)"/>
  <rect x="4.75" y="4.75" width="502.5" height="502.5" rx="115.25" stroke="#3C609D" stroke-opacity="0.42" stroke-width="1.5"/>

  <g filter="url(#shadow)">
    <path d="M256 92L350 132V238C350 307.75 311.463 370.531 250.211 402.418L256 406L261.789 402.418C200.537 370.531 162 307.75 162 238V132L256 92Z" fill="#0B1838"/>
    <path d="M256 92L350 132V238C350 307.75 311.463 370.531 250.211 402.418L256 406L261.789 402.418C200.537 370.531 162 307.75 162 238V132L256 92Z" stroke="url(#steel)" stroke-width="22" stroke-linejoin="round"/>

    <path d="M204 160H308V308H204V160Z" fill="#0A1A3E" stroke="url(#steel)" stroke-width="18" stroke-linejoin="round"/>
    <path d="M178 196H204V292H178" stroke="url(#steel)" stroke-width="18" stroke-linecap="round" stroke-linejoin="round"/>
    <path d="M334 196H308V292H334" stroke="url(#steel)" stroke-width="18" stroke-linecap="round" stroke-linejoin="round"/>
    <path d="M224 134V160" stroke="url(#steel)" stroke-width="18" stroke-linecap="round"/>
    <path d="M288 134V160" stroke="url(#steel)" stroke-width="18" stroke-linecap="round"/>

    <path d="M236 198H276C282.627 198 288 203.373 288 210V258C288 264.627 282.627 270 276 270H236C229.373 270 224 264.627 224 258V210C224 203.373 229.373 198 236 198Z" fill="url(#core)" fill-opacity="0.96"/>
    <path d="M248 222C248 217.582 251.582 214 256 214C260.418 214 264 217.582 264 222V244H248V222Z" fill="#0B1838"/>
    <circle cx="256" cy="236" r="8" fill="#0B1838"/>

    <path d="M214 336H298" stroke="#CFFFF8" stroke-opacity="0.28" stroke-width="10" stroke-linecap="round"/>
  </g>
</svg>
