<svg width="512" height="512" viewBox="0 0 512 512" fill="none" xmlns="http://www.w3.org/2000/svg">
  <defs>
    <linearGradient id="bg" x1="70" y1="52" x2="442" y2="462" gradientUnits="userSpaceOnUse">
      <stop offset="0" stop-color="#123164"/>
      <stop offset="0.58" stop-color="#0A1D45"/>
      <stop offset="1" stop-color="#081027"/>
    </linearGradient>
    <radialGradient id="ambient" cx="0" cy="0" r="1" gradientUnits="userSpaceOnUse" gradientTransform="translate(256 216) rotate(90) scale(236 230)">
      <stop offset="0" stop-color="#14A6A0" stop-opacity="0.34"/>
      <stop offset="0.62" stop-color="#14A6A0" stop-opacity="0.1"/>
      <stop offset="1" stop-color="#14A6A0" stop-opacity="0"/>
    </radialGradient>
    <linearGradient id="portal" x1="168" y1="122" x2="350" y2="360" gradientUnits="userSpaceOnUse">
      <stop offset="0" stop-color="#7FF5C4"/>
      <stop offset="0.5" stop-color="#5CDCF5"/>
      <stop offset="1" stop-color="#5480FF"/>
    </linearGradient>
    <linearGradient id="beam" x1="206" y1="162" x2="321" y2="300" gradientUnits="userSpaceOnUse">
      <stop offset="0" stop-color="#D8FFF8"/>
      <stop offset="1" stop-color="#A1C0FF"/>
    </linearGradient>
    <filter id="shadow" x="106" y="82" width="300" height="348" filterUnits="userSpaceOnUse" color-interpolation-filters="sRGB">
      <feFlood flood-opacity="0" result="BackgroundImageFix"/>
      <feColorMatrix in="SourceAlpha" type="matrix" values="0 0 0 0 0 0 0 0 0 0 0 0 0 0 0 0 0 0 127 0" result="hardAlpha"/>
      <feOffset dy="14"/>
      <feGaussianBlur stdDeviation="18"/>
      <feComposite in2="hardAlpha" operator="out"/>
      <feColorMatrix type="matrix" values="0 0 0 0 0.0157 0 0 0 0 0.1294 0 0 0 0 0.3294 0 0 0 0.42 0"/>
      <feBlend mode="normal" in2="BackgroundImageFix" result="effect1_dropShadow_1_1"/>
      <feBlend mode="normal" in="SourceGraphic" in2="effect1_dropShadow_1_1" result="shape"/>
    </filter>
  </defs>

  <rect x="4" y="4" width="504" height="504" rx="116" fill="url(#bg)"/>
  <rect x="4" y="4" width="504" height="504" rx="116" fill="url(#ambient)"/>
  <rect x="4.75" y="4.75" width="502.5" height="502.5" rx="115.25" stroke="#385B9A" stroke-opacity="0.42" stroke-width="1.5"/>

  <g filter="url(#shadow)">
    <path d="M256 110L336 156V284L256 330L176 284V156L256 110Z" stroke="url(#portal)" stroke-width="24" stroke-linejoin="round"/>
    <path d="M256 150L302 176V258L256 284L210 258V176L256 150Z" fill="#0B1A3E" stroke="url(#beam)" stroke-opacity="0.7" stroke-width="10" stroke-linejoin="round"/>

    <path d="M175 350L256 302L337 350" stroke="url(#portal)" stroke-width="24" stroke-linecap="round" stroke-linejoin="round"/>
    <path d="M205 366H307" stroke="url(#portal)" stroke-width="20" stroke-linecap="round"/>

    <path d="M256 92V134" stroke="url(#portal)" stroke-width="24" stroke-linecap="round"/>
    <circle cx="256" cy="74" r="14" fill="url(#beam)"/>

    <path d="M228 206L256 190L284 206V228L256 244L228 228V206Z" fill="url(#beam)" fill-opacity="0.9"/>
  </g>
</svg>
