<svg width="512" height="512" viewBox="0 0 512 512" fill="none" xmlns="http://www.w3.org/2000/svg">
  <defs>
    <linearGradient id="bg" x1="80" y1="56" x2="438" y2="456" gradientUnits="userSpaceOnUse">
      <stop offset="0" stop-color="#112B5E"/>
      <stop offset="0.55" stop-color="#0B1E45"/>
      <stop offset="1" stop-color="#08112A"/>
    </linearGradient>
    <radialGradient id="bgGlow" cx="0" cy="0" r="1" gradientUnits="userSpaceOnUse" gradientTransform="translate(256 198) rotate(90) scale(244 228)">
      <stop offset="0" stop-color="#145D74" stop-opacity="0.42"/>
      <stop offset="0.6" stop-color="#145D74" stop-opacity="0.14"/>
      <stop offset="1" stop-color="#145D74" stop-opacity="0"/>
    </radialGradient>
    <linearGradient id="stroke" x1="129" y1="118" x2="386" y2="376" gradientUnits="userSpaceOnUse">
      <stop offset="0" stop-color="#7CF3C2"/>
      <stop offset="0.5" stop-color="#59D7F5"/>
      <stop offset="1" stop-color="#4B7FFF"/>
    </linearGradient>
    <linearGradient id="nodeFill" x1="116" y1="105" x2="404" y2="350" gradientUnits="userSpaceOnUse">
      <stop offset="0" stop-color="#C2FFF1"/>
      <stop offset="1" stop-color="#8AB7FF"/>
    </linearGradient>
    <filter id="softShadow" x="74" y="74" width="364" height="368" filterUnits="userSpaceOnUse" color-interpolation-filters="sRGB">
      <feFlood flood-opacity="0" result="BackgroundImageFix"/>
      <feColorMatrix in="SourceAlpha" type="matrix" values="0 0 0 0 0 0 0 0 0 0 0 0 0 0 0 0 0 0 127 0" result="hardAlpha"/>
      <feOffset dy="12"/>
      <feGaussianBlur stdDeviation="18"/>
      <feComposite in2="hardAlpha" operator="out"/>
      <feColorMatrix type="matrix" values="0 0 0 0 0.0157 0 0 0 0 0.1294 0 0 0 0 0.3294 0 0 0 0.44 0"/>
      <feBlend mode="normal" in2="BackgroundImageFix" result="effect1_dropShadow_1_1"/>
      <feBlend mode="normal" in="SourceGraphic" in2="effect1_dropShadow_1_1" result="shape"/>
    </filter>
  </defs>

  <rect x="4" y="4" width="504" height="504" rx="116" fill="url(#bg)"/>
  <rect x="4" y="4" width="504" height="504" rx="116" fill="url(#bgGlow)"/>
  <path d="M104 0H408C465.438 0 512 46.5624 512 104V408C512 465.438 465.438 512 408 512H104C46.5624 512 0 465.438 0 408V104C0 46.5624 46.5624 0 104 0Z" fill="url(#bgGlow)" opacity="0.55"/>
  <rect x="4.75" y="4.75" width="502.5" height="502.5" rx="115.25" stroke="#3D5F9F" stroke-opacity="0.42" stroke-width="1.5"/>

  <g filter="url(#softShadow)">
    <path d="M256 122L339 170V266L256 314L173 266V170L256 122Z" stroke="url(#stroke)" stroke-width="26" stroke-linejoin="round"/>
    <path d="M256 86V142" stroke="url(#stroke)" stroke-width="28" stroke-linecap="round"/>
    <path d="M135 338L183 307" stroke="url(#stroke)" stroke-width="28" stroke-linecap="round"/>
    <path d="M377 338L329 307" stroke="url(#stroke)" stroke-width="28" stroke-linecap="round"/>
    <circle cx="256" cy="218" r="34" fill="#0B1D43" stroke="url(#stroke)" stroke-width="16"/>
    <circle cx="256" cy="218" r="10" fill="#D5FFF7"/>
    <circle cx="256" cy="72" r="15" fill="url(#nodeFill)"/>
    <circle cx="122" cy="346" r="15" fill="url(#nodeFill)"/>
    <circle cx="390" cy="346" r="15" fill="url(#nodeFill)"/>
  </g>

  <path d="M256 155L310 186.5V249.5L256 281L202 249.5V186.5L256 155Z" stroke="#CFFFF8" stroke-opacity="0.18" stroke-width="8" stroke-linejoin="round"/>
</svg>
